# xmcd
#
# Track frame offsets:
#  150
#  13532
#  25484
#  43509
#  56934
#  73150
#  89106
#  102526
#
# Disc length: 1559 seconds
#
# Revision: 0
# Processed by: cddbd v1.4PL0 Copyright (c) Steve Scherf et al.
# Submitted via: AltoMP3_Maker 3.0
#
DISCID=74061508
DTITLE=Jono Manson - No Alternative - Promo Sampler
DYEAR=1900
DGENRE=
TTITLE0=No Alternative
TTITLE1=Jackie´s Dive
TTITLE2=Joe Sawyer
TTITLE3=Scene Of The Crime
TTITLE4=One Horse Town
TTITLE5=I´ve Been Down
TTITLE6=The One That Got Away
TTITLE7=When In Love
EXTD=
EXTT0=
EXTT1=
EXTT2=
EXTT3=
EXTT4=
EXTT5=
EXTT6=
EXTT7=
PLAYORDER=
